<svg xmlns="http://www.w3.org/2000/svg" viewBox="0 0 26 30.7"><defs><style>.cls-1{fill:#a37a2d;}</style></defs><title>Asset 2</title><g id="Layer_2" data-name="Layer 2"><g id="Index"><path class="cls-1" d="M25.92,14.33l-.16-.26h0L21.23,6.49a.33.33,0,0,0-.12-.11.47.47,0,0,0-.28-.08h-.31v0h-7V4L13.68,4A2,2,0,0,0,15,2,2,2,0,1,0,11,2,2,2,0,0,0,12.32,4l.21.07V6.27h-7v0H5.17a.53.53,0,0,0-.42.21L.23,14.06l-.15.27a.43.43,0,0,0-.08.24,5.17,5.17,0,0,0,10.34,0,.52.52,0,0,0-.08-.24l-.17-.26h0L6.28,7.68,6,7.2h6.53V26.63H8.3a2,2,0,0,0-2,2v1.57a.47.47,0,0,0,.46.47H19.27a.47.47,0,0,0,.46-.47V28.66a2,2,0,0,0-2-2H13.47V7.2H20l-.28.48-3.83,6.38-.15.27a.52.52,0,0,0-.08.24,5.17,5.17,0,0,0,10.34,0A.43.43,0,0,0,25.92,14.33ZM9.31,15.41A4.25,4.25,0,0,1,6,18.72a4.8,4.8,0,0,1-.85.08A4.23,4.23,0,0,1,1,15.41L1,15H9.39Zm-.55-1.79L9,14.1H1.3l.28-.48L4.9,8.1l.27-.45.26.45Zm8.94,14a1.1,1.1,0,0,1,1.1,1.09v1.1H7.2v-1.1a1.1,1.1,0,0,1,1.1-1.09ZM13,3.13A1.1,1.1,0,1,1,14.1,2,1.1,1.1,0,0,1,13,3.13Zm4.24,10.49L20.57,8.1l.26-.45.27.45,3.32,5.52.28.48H17ZM25,15.41a4.22,4.22,0,0,1-3.3,3.31,4.71,4.71,0,0,1-.85.08,4.23,4.23,0,0,1-4.13-3.39L16.61,15h8.44Z"/></g></g></svg>