<?xml version="1.0" encoding="utf-8"?>
<!-- Generator: Adobe Illustrator 22.1.0, SVG Export Plug-In . SVG Version: 6.00 Build 0)  -->
<svg version="1.1" id="Layer_1" xmlns="http://www.w3.org/2000/svg" xmlns:xlink="http://www.w3.org/1999/xlink" x="0px" y="0px"
	 viewBox="0 0 75.9 75.9" style="enable-background:new 0 0 75.9 75.9;" xml:space="preserve">
<style type="text/css">
	.st0{opacity:0.5;}
	.st1{fill:#A37A2D;}
</style>
<g class="st0">
	<path class="st1" d="M12.2,29.2l-3-1.2l0.7-1.7l0.2,0.1l-0.6,1.4l1.1,0.5l0.4-1.1l0.2,0.1l-0.4,1.1l1.2,0.5l0.6-1.5l0.2,0.1
		L12.2,29.2z"/>
	<path class="st1" d="M15,23.8L12.3,22l0.2-0.2l2.7,1.8L15,23.8z"/>
	<path class="st1" d="M18.5,19.6c-0.2,0.2-0.5,0.4-0.7,0.4l-0.2-0.2c0.1,0,0.3-0.1,0.4-0.1c0.1-0.1,0.3-0.2,0.4-0.3
		c0.2-0.2,0.3-0.3,0.3-0.5c0-0.2,0-0.3-0.2-0.5c-0.1-0.1-0.2-0.1-0.3-0.2c-0.1,0-0.2,0-0.3,0c-0.1,0-0.2,0.1-0.3,0.1
		c-0.1,0-0.2,0.1-0.3,0.1c-0.1,0-0.2,0.1-0.3,0.1c-0.1,0-0.2,0-0.3,0s-0.2-0.1-0.3-0.2c-0.2-0.2-0.3-0.4-0.3-0.6
		c0-0.2,0.1-0.4,0.3-0.6c0.2-0.2,0.4-0.3,0.7-0.4l0.2,0.2c-0.3,0.1-0.5,0.2-0.7,0.3c-0.1,0.1-0.2,0.3-0.2,0.5c0,0.2,0,0.3,0.2,0.4
		c0.1,0.1,0.1,0.1,0.2,0.1c0.1,0,0.1,0,0.2,0c0.1,0,0.2,0,0.2,0c0.1,0,0.2-0.1,0.3-0.1c0.1,0,0.2-0.1,0.3-0.1c0.1,0,0.2-0.1,0.3-0.1
		c0.1,0,0.2,0,0.3,0c0.1,0,0.2,0,0.3,0.1c0.1,0,0.2,0.1,0.3,0.2c0.2,0.2,0.3,0.4,0.3,0.7C18.9,19.2,18.7,19.4,18.5,19.6z"/>
	<path class="st1" d="M22.6,16.3l-1.7-2.8l1.6-1l0.1,0.2l-1.3,0.8l0.6,1l1-0.6l0.1,0.2l-1,0.6l0.7,1.1l1.4-0.8l0.1,0.2L22.6,16.3z"
		/>
	<path class="st1" d="M30.4,12.8l-3-1.9l0.8,2.5L28,13.5l-1-3.1l0,0l3,1.9l-0.8-2.5l0.3-0.1L30.4,12.8L30.4,12.8z"/>
	<path class="st1" d="M37.7,11.6l-0.2,0.2l-0.5-0.4c-0.1,0.1-0.3,0.2-0.4,0.3c-0.2,0.1-0.4,0.1-0.6,0.1c-0.2,0-0.4,0-0.5,0
		c-0.2,0-0.3-0.1-0.4-0.2c-0.1-0.1-0.2-0.2-0.3-0.3c-0.1-0.1-0.1-0.3-0.1-0.5c0-0.2,0-0.4,0.1-0.6c0.1-0.2,0.2-0.3,0.4-0.4
		C35,9.7,35,9.5,35,9.3c0-0.2,0.1-0.4,0.2-0.6c0.2-0.1,0.4-0.2,0.6-0.2c0.1,0,0.3,0,0.4,0c0.1,0,0.2,0.1,0.2,0.1l0,0.3
		c-0.2-0.1-0.4-0.1-0.6-0.1c-0.2,0-0.3,0.1-0.4,0.2c-0.1,0.1-0.2,0.2-0.1,0.4c0,0.1,0,0.2,0.1,0.3c0.1,0.1,0.2,0.2,0.3,0.3l1.4,1.1
		c0.1-0.1,0.1-0.3,0.1-0.4c0-0.2-0.1-0.4-0.2-0.5c-0.1-0.1-0.3-0.2-0.5-0.3l0.2-0.2c0.2,0,0.4,0.1,0.5,0.3c0.1,0.2,0.2,0.4,0.2,0.6
		c0,0.2,0,0.4-0.1,0.6L37.7,11.6z M36.1,11.6c0.4,0,0.6-0.1,0.8-0.4L35.4,10c-0.1,0.1-0.2,0.2-0.3,0.3C35,10.4,35,10.6,35,10.8
		c0,0.2,0.1,0.3,0.2,0.5s0.2,0.2,0.4,0.3S35.9,11.6,36.1,11.6z"/>
	<path class="st1" d="M43.2,12.2c-0.3-0.1-0.6-0.2-0.8-0.4c-0.2-0.2-0.4-0.4-0.4-0.7c-0.1-0.3-0.1-0.6,0-0.9
		c0.1-0.3,0.2-0.6,0.3-0.8s0.4-0.4,0.6-0.5c0.3-0.1,0.6-0.1,0.9-0.1C44,9,44.2,9,44.3,9.1c0.2,0.1,0.3,0.2,0.3,0.2l0,0.3
		c-0.2-0.2-0.5-0.4-0.9-0.4c-0.4-0.1-0.7,0-1,0.2c-0.3,0.2-0.4,0.5-0.5,1c-0.1,0.4,0,0.8,0.2,1.1c0.2,0.3,0.5,0.5,0.9,0.5
		c0.2,0,0.4,0,0.5,0c0.2,0,0.3-0.1,0.4-0.1l0,0.3c-0.1,0-0.2,0.1-0.4,0.1C43.6,12.3,43.4,12.3,43.2,12.2z"/>
	<path class="st1" d="M49.5,14.2c-0.2-0.1-0.3-0.2-0.5-0.3c-0.1-0.1-0.2-0.3-0.3-0.4c-0.1-0.1-0.1-0.3-0.1-0.5c0-0.2,0-0.3,0-0.5
		s0.1-0.3,0.2-0.5c0.1-0.2,0.2-0.4,0.4-0.6c0.1-0.2,0.3-0.3,0.5-0.4c0.2-0.1,0.4-0.1,0.6-0.1c0.2,0,0.4,0.1,0.7,0.2
		c0.2,0.1,0.4,0.2,0.6,0.4c0.1,0.2,0.3,0.3,0.3,0.5c0.1,0.2,0.1,0.4,0.1,0.6c0,0.2-0.1,0.4-0.2,0.6c-0.1,0.2-0.2,0.4-0.4,0.6
		c-0.1,0.2-0.3,0.3-0.5,0.4c-0.2,0.1-0.4,0.1-0.6,0.1C49.9,14.3,49.7,14.3,49.5,14.2z M49.6,13.9c0.4,0.2,0.7,0.2,1,0
		s0.6-0.4,0.7-0.8c0.1-0.2,0.2-0.5,0.1-0.7c0-0.2-0.1-0.4-0.2-0.6s-0.3-0.3-0.6-0.4c-0.3-0.2-0.7-0.2-1,0s-0.6,0.4-0.7,0.8
		c-0.1,0.2-0.2,0.5-0.2,0.7c0,0.2,0.1,0.5,0.2,0.6C49.2,13.7,49.3,13.8,49.6,13.9z"/>
	<path class="st1" d="M54.6,17l2-2.6l0.2,0.2L55,17l1.3,1l-0.1,0.2L54.6,17z"/>
	<path class="st1" d="M59.1,21.2l2.5-2.1l1.2,1.4l-0.2,0.2l-1-1.2l-1,0.8l0.7,0.9l-0.2,0.1l-0.7-0.9l-1,0.8l1,1.3l-0.2,0.2
		L59.1,21.2z"/>
	<path class="st1" d="M63.1,27.4c-0.1-0.2-0.2-0.5-0.2-0.7c0-0.2,0-0.4,0.1-0.6c0.1-0.2,0.2-0.3,0.3-0.5c0.2-0.1,0.3-0.3,0.6-0.4
		c0.3-0.1,0.6-0.2,0.9-0.2c0.3,0,0.5,0.1,0.8,0.3s0.4,0.4,0.5,0.7c0.1,0.2,0.1,0.3,0.2,0.5s0.1,0.3,0.1,0.4c0,0.1,0,0.1,0,0.2
		l-0.3,0.1c0-0.1,0-0.3,0-0.5c0-0.2-0.1-0.4-0.2-0.6c-0.2-0.4-0.4-0.6-0.8-0.7c-0.3-0.1-0.7-0.1-1.1,0.1c-0.2,0.1-0.4,0.3-0.6,0.4
		c-0.1,0.2-0.2,0.4-0.3,0.6s0,0.5,0.1,0.7c0.1,0.2,0.2,0.3,0.3,0.4c0.1,0.1,0.2,0.2,0.4,0.2c0.1,0,0.3,0,0.4,0
		c0.1,0,0.3-0.1,0.5-0.1l-0.5-1l0.2-0.1l0.6,1.3L65.1,28c-0.1,0.1-0.3,0.1-0.4,0.2c-0.1,0-0.3,0.1-0.4,0.1s-0.3,0-0.4-0.1
		c-0.1-0.1-0.3-0.1-0.4-0.3C63.3,27.7,63.2,27.6,63.1,27.4z"/>
	<path class="st1" d="M64.9,32.4l3.5,0.9l0,0.1l-3,2l0-0.3l0.7-0.5l-0.3-1.7l-0.8-0.2L64.9,32.4z M66,32.9l0.2,1.5l1.6-1L66,32.9z"
		/>
	<path class="st1" d="M65.4,39.4l3.2,0.3l0,0.3l-3-0.3l-0.2,1.7l-0.2,0L65.4,39.4z"/>
	<path class="st1" d="M67.1,47.4c0,0.1-0.1,0.3-0.2,0.4s-0.1,0.2-0.2,0.3c-0.1,0.1-0.2,0.2-0.3,0.2c-0.1,0-0.2,0.1-0.3,0.1
		c-0.1,0-0.3,0-0.4-0.1c-0.2-0.1-0.3-0.1-0.4-0.2c-0.1-0.1-0.2-0.2-0.2-0.3S65,47.6,65,47.5c0-0.1,0-0.2,0-0.4
		c0-0.1,0.1-0.2,0.1-0.4l0.2-0.6l-1.2-0.4l0.1-0.3l3.1,1.1L67.1,47.4z M65.4,46.8c-0.2,0.6-0.1,1,0.4,1.2c0.1,0,0.3,0.1,0.4,0.1
		c0.1,0,0.2-0.1,0.3-0.1s0.2-0.2,0.2-0.3c0.1-0.1,0.1-0.2,0.2-0.4l0.2-0.6l-1.5-0.5L65.4,46.8z"/>
	<path class="st1" d="M61.9,53.2l-1.6,0l0.2-0.3L62,53l0.5-0.7l-1.1-0.7l0.2-0.2l2.7,1.8L63.8,54c-0.2,0.3-0.4,0.5-0.7,0.6
		c-0.2,0.1-0.5,0-0.8-0.2c-0.1-0.1-0.2-0.2-0.3-0.3s-0.1-0.2-0.1-0.3c0-0.1,0-0.2,0-0.3S61.9,53.3,61.9,53.2z M62.3,53
		c-0.1,0.1-0.1,0.2-0.2,0.3s-0.1,0.2-0.1,0.3s0,0.2,0.1,0.3c0.1,0.1,0.1,0.2,0.3,0.3c0.2,0.1,0.4,0.2,0.6,0.1
		c0.2-0.1,0.4-0.2,0.5-0.5l0.4-0.6l-1.2-0.8L62.3,53z"/>
	<path class="st1" d="M57.8,56.1l1.1,3.4l0,0l-3.3-1.5l0.2-0.2l0.8,0.4l1.3-1.1l-0.3-0.8L57.8,56.1z M58,57.4l-1.1,1l1.7,0.8
		L58,57.4z"/>
	<path class="st1" d="M50.9,61c0.3-0.2,0.6-0.2,0.9-0.2s0.5,0.1,0.8,0.3c0.2,0.2,0.4,0.4,0.6,0.7c0.2,0.3,0.2,0.6,0.2,0.8
		c0,0.3-0.1,0.5-0.2,0.8c-0.1,0.2-0.4,0.4-0.7,0.6c-0.2,0.1-0.4,0.2-0.5,0.2c-0.2,0-0.3,0-0.4,0l-0.1-0.3c0.3,0,0.6,0,0.9-0.2
		c0.4-0.2,0.6-0.4,0.7-0.8c0.1-0.3,0-0.7-0.2-1.1c-0.2-0.4-0.5-0.6-0.8-0.8s-0.7-0.1-1,0.1c-0.2,0.1-0.3,0.2-0.4,0.3
		s-0.2,0.2-0.3,0.4l-0.1-0.3c0-0.1,0.1-0.2,0.3-0.3C50.6,61.2,50.8,61.1,50.9,61z"/>
	<path class="st1" d="M45.4,63.2l0.8,2.9l1-0.3l0.1,0.2l-2.2,0.6l-0.1-0.2l1-0.3l-0.8-2.9L45.4,63.2z"/>
	<path class="st1" d="M39.9,64.1l0.2,3.2l-0.3,0l-0.2-3.2L39.9,64.1z"/>
	<path class="st1" d="M34.4,63.9l-0.4,3l1,0.1l0,0.2L32.7,67l0-0.2l1,0.1l0.4-3L34.4,63.9z"/>
	<path class="st1" d="M29,62.7l-1,3.1l-0.3-0.1l1-3.1L29,62.7z"/>
	<path class="st1" d="M23.5,60.1c0.2,0.1,0.3,0.2,0.4,0.4c0.1,0.1,0.2,0.3,0.3,0.4s0.1,0.3,0.1,0.5s0,0.3-0.1,0.5
		c0,0.2-0.1,0.3-0.2,0.5c-0.1,0.2-0.3,0.4-0.4,0.5S23.2,63,23,63.1c-0.2,0.1-0.4,0.1-0.6,0s-0.4-0.1-0.6-0.2
		c-0.2-0.1-0.4-0.3-0.5-0.5S21,62.1,21,61.9s0-0.4,0-0.6s0.1-0.4,0.2-0.6c0.1-0.2,0.3-0.4,0.4-0.5c0.2-0.1,0.3-0.2,0.5-0.3
		c0.2-0.1,0.4-0.1,0.6-0.1S23.2,59.9,23.5,60.1z M23.3,60.3c-0.3-0.2-0.7-0.3-1-0.1c-0.3,0.1-0.6,0.3-0.8,0.7
		c-0.1,0.2-0.2,0.5-0.2,0.7c0,0.2,0,0.5,0.1,0.7c0.1,0.2,0.3,0.4,0.5,0.5c0.3,0.2,0.7,0.2,1,0.1c0.3-0.1,0.6-0.3,0.8-0.7
		c0.1-0.2,0.2-0.5,0.2-0.7s0-0.5-0.1-0.7C23.7,60.6,23.5,60.4,23.3,60.3z"/>
	<path class="st1" d="M17,54.7l-0.4,3.5l1.9-1.8l0.2,0.2l-2.4,2.3l0,0l0.4-3.5l-1.9,1.8l-0.2-0.2L17,54.7L17,54.7z"/>
	<path class="st1" d="M14.3,51l-2.8,1.6L10.6,51l0.2-0.1l0.8,1.4l1.1-0.6l-0.6-1l0.2-0.1l0.6,1l1.1-0.6l-0.8-1.4l0.2-0.1L14.3,51z"
		/>
	<path class="st1" d="M10.2,44.5l1-1.2l0.1,0.3l-1,1.1l0.2,0.9l1.2-0.3l0.1,0.3l-3.1,0.9l-0.3-1c-0.1-0.3-0.1-0.6,0-0.9
		C8.5,44.3,8.7,44.1,9,44c0.1,0,0.3-0.1,0.4,0c0.1,0,0.2,0,0.3,0.1c0.1,0,0.2,0.1,0.2,0.2S10.1,44.4,10.2,44.5z M10.1,45
		c0-0.1-0.1-0.2-0.1-0.3c0-0.1-0.1-0.2-0.2-0.2c-0.1-0.1-0.2-0.1-0.3-0.1c-0.1,0-0.2,0-0.4,0c-0.2,0.1-0.4,0.2-0.5,0.4
		c-0.1,0.2-0.1,0.4,0,0.7l0.2,0.7l1.4-0.4L10.1,45z"/>
	<path class="st1" d="M10.7,38.4c0,0.3-0.1,0.6-0.2,0.8l-0.3,0c0.1-0.1,0.1-0.2,0.2-0.4c0-0.1,0.1-0.3,0.1-0.5
		c0-0.2-0.1-0.4-0.2-0.5c-0.1-0.1-0.3-0.2-0.5-0.2c-0.1,0-0.2,0-0.3,0.1C9.4,37.9,9.4,38,9.3,38c-0.1,0.1-0.1,0.2-0.1,0.3
		S9.1,38.6,9,38.7c0,0.1-0.1,0.2-0.2,0.3c-0.1,0.1-0.1,0.2-0.2,0.2c-0.1,0.1-0.2,0.1-0.4,0.1c-0.3,0-0.5-0.1-0.6-0.2
		c-0.2-0.2-0.2-0.4-0.2-0.7c0-0.3,0-0.5,0.2-0.7l0.3,0c-0.1,0.2-0.2,0.5-0.2,0.7c0,0.2,0.1,0.4,0.2,0.5C7.9,39,8,39,8.2,39
		c0.1,0,0.2,0,0.2-0.1c0.1,0,0.1-0.1,0.2-0.1c0-0.1,0.1-0.1,0.1-0.2c0-0.1,0.1-0.2,0.1-0.2c0-0.1,0.1-0.2,0.1-0.3
		C9,38,9,37.9,9.1,37.9c0-0.1,0.1-0.1,0.2-0.2c0.1-0.1,0.1-0.1,0.2-0.1c0.1,0,0.2-0.1,0.3-0.1c0.3,0,0.5,0.1,0.7,0.3
		C10.6,37.9,10.7,38.1,10.7,38.4z"/>
</g>
</svg>
